<svg xmlns="http://www.w3.org/2000/svg" fill="none" viewBox="0 0 49 49">
  <circle cx="24.043" cy="24.043" r="23.684" fill="#fff" stroke="#012160" stroke-width=".718"/>
  <path d="M34.981 22.85c-.009-.782-.011-1.57-.014-2.357h-2.331a367.6 367.6 0 00-.02 2.358c-.785.003-1.564.009-2.343.017v2.346c.779.009 1.563.014 2.342.023.009.783.009 1.569.015 2.352h2.334c.003-.783.008-1.57.014-2.358.785-.008 1.564-.011 2.343-.02v-2.346c-.776-.005-1.56-.005-2.34-.014zm-15.29.012c-.004.937 0 1.876.002 2.813 1.564.052 3.13.029 4.694.052-.69 3.488-5.407 4.619-7.902 2.34-2.568-1.998-2.447-6.379.222-8.235 1.867-1.496 4.518-1.128 6.385.168a29.426 29.426 0 002.08-2.165c-1.552-1.244-3.456-2.132-5.482-2.039-4.23-.142-8.115 3.581-8.185 7.835-.27 3.476 2.003 6.883 5.21 8.113 3.197 1.238 7.297.394 9.34-2.494 1.347-1.824 1.638-4.172 1.48-6.379a707.4 707.4 0 00-7.845-.009z" fill="#1B57ED"/>
</svg>
