<svg xmlns="http://www.w3.org/2000/svg" fill="none" viewBox="0 0 361 375">
  <path d="M93.377 268.56l8.011-19.815 10.54 10.54-11.383 10.329-7.168-1.054z" fill="#009156"/>
  <path d="M196.039 34.572l30.777-15.6-1.475 12.86-29.302 2.74z" fill="url(#DltRjS5Xfoa)"/>
  <path d="M167.373 41.74l-32.041-2.53 7.589-9.486 24.452 12.015z" fill="url(#DltRjS5Xfob)"/>
  <path d="M88.106 235.884L73.35 254.013l-2.74-8.432 17.496-9.697z" fill="url(#DltRjS5Xfoc)"/>
  <path d="M143.129 286.477l-8.853 10.54-1.476-4.849 10.329-5.691z" fill="#F57700"/>
  <path d="M70.403 65.136l-11.384 8.01v-5.27l11.384-2.74zm3.585 34.783l2.951 19.183-6.535-2.951 3.584-16.232z" fill="#0095DB"/>
  <path d="M15.388 349.295L5.902 374.38 0 366.159l15.388-16.864z" fill="url(#DltRjS5Xfod)"/>
  <path d="M335.592 118.259l20.87.21-6.114 8.011-14.756-8.221z" fill="#F57700"/>
  <path d="M40.684 128.377L23.82 151.775l-3.584-9.486 20.448-13.912z" fill="url(#DltRjS5Xfoe)"/>
  <path d="M295.964 48.696l17.708-8.221-2.53 9.696-15.178-1.475z" fill="url(#DltRjS5Xfof)"/>
  <path d="M131.338 89.59l19.183-17.707 1.054 13.28-20.237 4.428z" fill="#0095DB"/>
  <path d="M178.131 38.787l2.951-13.07 4.427 5.48-7.378 7.59z" fill="#F57700"/>
  <path d="M352.04 78.84l5.692-12.227 2.951 6.114-8.643 6.113z" fill="#CFD800"/>
  <path d="M105.832 112.568l-6.114-12.016 6.957 1.476-.843 10.54z" fill="url(#DltRjS5Xfog)"/>
  <path d="M73.986 187.822l6.535-11.804 2.53 6.324-9.065 5.48z" fill="#0095DB"/>
  <path d="M146.51 123.529l5.059-15.6 4.216 5.692-9.275 9.908z" fill="#06A21C"/>
  <path d="M272.564 47.64L263.5 34.15l6.956.21 2.108 13.28z" fill="#F57700"/>
  <path d="M218.802 88.535L207.629 76.52l6.957-.843 4.216 12.858z" fill="url(#DltRjS5Xfoh)"/>
  <path d="M69.558 229.984l-13.07-3.162 5.691-4.216 7.379 7.378z" fill="#CFD800"/>
  <path d="M113.202 53.122l-14.967-.211 4.216-5.481 10.751 5.692z" fill="url(#DltRjS5Xfoi)"/>
  <path d="M285.844 29.934L283.736 0l10.751 6.535-8.643 23.399z" fill="url(#DltRjS5Xfoj)"/>
  <path d="M311.774 98.866l12.016-6.114-1.476 6.746-10.54-.632z" fill="#0095DB"/>
  <path d="M129.218 248.745l6.746 13.28-5.481-.632-1.265-12.648z" fill="#CFD800"/>
  <path d="M245.59 17.284l12.437 8.222-5.27 2.318-7.167-10.54z" fill="#F57700"/>
  <path d="M127.118 46.797l9.065 12.016-5.692.421-3.373-12.437zm65.546 22.979l7.589 7.589-5.481.632-2.108-8.221z" fill="#CFD800"/>
  <defs>
    <linearGradient id="DltRjS5Xfob" x1="139.997" y1="45.97" x2="160.716" y2="31.998" gradientUnits="userSpaceOnUse">
      <stop stop-color="#FFFC00"/>
      <stop offset=".371" stop-color="#FFAD00"/>
      <stop offset="1" stop-color="#FF5300"/>
    </linearGradient>
    <linearGradient id="DltRjS5Xfoc" x1="138.698" y1="344.926" x2="51.736" y2="195.016" gradientUnits="userSpaceOnUse">
      <stop stop-color="#FFFC00"/>
      <stop offset=".371" stop-color="#FFAD00"/>
      <stop offset="1" stop-color="#FF5300"/>
    </linearGradient>
    <linearGradient id="DltRjS5Xfod" x1="-4.119" y1="393.894" x2="49.583" y2="229.168" gradientUnits="userSpaceOnUse">
      <stop stop-color="#FFFC00"/>
      <stop offset=".371" stop-color="#FFAD00"/>
      <stop offset="1" stop-color="#FF5300"/>
    </linearGradient>
    <linearGradient id="DltRjS5Xfof" x1="363.537" y1="145.865" x2="276.318" y2="-4.487" gradientUnits="userSpaceOnUse">
      <stop stop-color="#FFFC00"/>
      <stop offset=".371" stop-color="#FFAD00"/>
      <stop offset="1" stop-color="#FF5300"/>
    </linearGradient>
    <linearGradient id="DltRjS5Xfog" x1="102.052" y1="107.107" x2="107.488" y2="103.442" gradientUnits="userSpaceOnUse">
      <stop stop-color="#FFFC00"/>
      <stop offset=".371" stop-color="#FFAD00"/>
      <stop offset="1" stop-color="#FF5300"/>
    </linearGradient>
    <linearGradient id="DltRjS5Xfoh" x1="352.028" y1="319.118" x2="265.032" y2="169.155" gradientUnits="userSpaceOnUse">
      <stop stop-color="#FFFC00"/>
      <stop offset=".371" stop-color="#FFAD00"/>
      <stop offset="1" stop-color="#FF5300"/>
    </linearGradient>
    <radialGradient id="DltRjS5Xfoa" cx="0" cy="0" r="1" gradientUnits="userSpaceOnUse" gradientTransform="rotate(-33.994 153.93 -84.234) scale(354.313)">
      <stop offset=".095" stop-color="#C5213A"/>
      <stop offset=".238" stop-color="#D1000A"/>
      <stop offset=".777" stop-color="#850027"/>
    </radialGradient>
    <radialGradient id="DltRjS5Xfoe" cx="0" cy="0" r="1" gradientUnits="userSpaceOnUse" gradientTransform="rotate(-33.994 153.93 -84.23) scale(354.351)">
      <stop offset=".095" stop-color="#C5213A"/>
      <stop offset=".238" stop-color="#D1000A"/>
      <stop offset=".777" stop-color="#850027"/>
    </radialGradient>
    <radialGradient id="DltRjS5Xfoi" cx="0" cy="0" r="1" gradientUnits="userSpaceOnUse" gradientTransform="rotate(-33.994 153.935 -84.228) scale(354.346)">
      <stop offset=".095" stop-color="#C5213A"/>
      <stop offset=".238" stop-color="#D1000A"/>
      <stop offset=".777" stop-color="#850027"/>
    </radialGradient>
    <radialGradient id="DltRjS5Xfoj" cx="0" cy="0" r="1" gradientUnits="userSpaceOnUse" gradientTransform="rotate(-33.994 153.928 -84.228) scale(354.332)">
      <stop offset=".095" stop-color="#C5213A"/>
      <stop offset=".238" stop-color="#D1000A"/>
      <stop offset=".777" stop-color="#850027"/>
    </radialGradient>
  </defs>
</svg>
