<svg xmlns="http://www.w3.org/2000/svg" fill="none" viewBox="0 0 49 49">
  <circle cx="24.043" cy="24.043" r="23.684" fill="#fff" stroke="#012160" stroke-width=".718"/>
  <path fill-rule="evenodd" clip-rule="evenodd" d="M22.188 21.792h3.198v1.593c.461-.917 1.643-1.74 3.418-1.74 3.402 0 4.21 1.824 4.21 5.171v6.199H29.57v-5.437c0-1.906-.46-2.98-1.633-2.98-1.627 0-2.303 1.158-2.303 2.98v5.437h-3.445V21.792zM16.28 32.868h3.445V21.645H16.28v11.223zm3.939-14.882a2.178 2.178 0 01-.649 1.552 2.23 2.23 0 01-3.133 0 2.194 2.194 0 01-.648-1.552c0-.583.233-1.141.649-1.553a2.225 2.225 0 013.132 0c.415.412.649.97.649 1.553z" fill="#1B57ED"/>
</svg>
