<svg xmlns="http://www.w3.org/2000/svg" fill="none" viewBox="0 0 168 58">
  <path fill-rule="evenodd" clip-rule="evenodd" d="M26.511 27.374a5.808 5.808 0 10-11.615 0 5.81 5.81 0 005.808 5.807 5.81 5.81 0 005.807-5.807z" fill="#1B57ED"/>
  <path d="M53.57 36.918v3.7h3.26c.648 0 1.134-.075 1.458-.224.573-.262.86-.78.86-1.551 0-.835-.278-1.396-.832-1.682-.312-.162-.779-.243-1.402-.243H53.57zm3.942-2.392c.966.019 1.707.137 2.224.355.523.218.965.539 1.327.962.299.35.535.735.71 1.159.174.423.261.906.261 1.448 0 .654-.165 1.299-.495 1.934-.33.63-.875 1.075-1.635 1.336.635.256 1.084.62 1.345 1.093.268.468.402 1.184.402 2.15v.924c0 .63.025 1.056.075 1.28.075.355.25.617.523.785v.346h-3.167a9.846 9.846 0 01-.187-.738 6.774 6.774 0 01-.122-1.187l-.018-1.28c-.013-.878-.175-1.464-.486-1.756-.305-.293-.881-.44-1.728-.44h-2.972v5.4h-2.812v-13.77h6.755zm10.81 5.512c-.616 0-1.096.194-1.439.58-.336.386-.548.91-.635 1.57h4.14c-.044-.704-.26-1.237-.645-1.598-.38-.368-.854-.552-1.42-.552zm0-2.195c.847 0 1.61.159 2.29.476.678.318 1.239.82 1.681 1.505.399.604.657 1.305.776 2.102.068.467.096 1.14.084 2.018h-6.97c.037 1.021.358 1.738.962 2.149.368.255.81.383 1.327.383.548 0 .993-.156 1.336-.467a2.22 2.22 0 00.495-.7h2.719c-.069.603-.383 1.217-.944 1.84-.872.99-2.093 1.485-3.662 1.485a5.165 5.165 0 01-3.43-1.252c-.99-.834-1.485-2.192-1.485-4.073 0-1.763.446-3.115 1.336-4.055.897-.94 2.059-1.411 3.485-1.411zm13.651 5.363c0-.785-.18-1.48-.542-2.084-.355-.604-.934-.906-1.738-.906-.965 0-1.629.458-1.99 1.373-.187.486-.28 1.103-.28 1.85 0 1.184.314 2.015.943 2.495.374.28.816.42 1.327.42.741 0 1.305-.286 1.691-.86.392-.572.589-1.335.589-2.288zm-1.514-5.317c1.19 0 2.196.44 3.018 1.318.828.878 1.243 2.168 1.243 3.868 0 1.794-.405 3.161-1.215 4.102-.803.94-1.84 1.41-3.111 1.41-.81 0-1.483-.202-2.018-.607-.293-.224-.58-.551-.86-.98v5.306h-2.635V38.114h2.55v1.504c.288-.442.593-.791.917-1.046.591-.455 1.295-.683 2.111-.683zm11.726-.019c.05 0 .09.004.121.01.038 0 .116.003.234.01v2.728a7.265 7.265 0 00-.766-.047c-1.072 0-1.791.349-2.159 1.047-.205.392-.308.996-.308 1.812v4.868h-2.681V38.114h2.541v1.775c.411-.679.77-1.143 1.075-1.392.498-.417 1.146-.626 1.943-.626zm5.942 2.168c-.616 0-1.096.194-1.439.58-.336.386-.548.91-.635 1.57h4.139c-.044-.704-.258-1.237-.645-1.598-.38-.368-.853-.552-1.42-.552zm0-2.195c.847 0 1.61.159 2.289.476.679.318 1.24.82 1.682 1.505.399.604.657 1.305.776 2.102.068.467.096 1.14.084 2.018h-6.97c.037 1.021.358 1.738.962 2.149.367.255.81.383 1.327.383.548 0 .993-.156 1.336-.467a2.22 2.22 0 00.495-.7h2.719c-.069.603-.383 1.217-.944 1.84-.872.99-2.093 1.485-3.662 1.485a5.165 5.165 0 01-3.43-1.252c-.99-.834-1.485-2.192-1.485-4.073 0-1.763.445-3.115 1.336-4.055.897-.94 2.059-1.411 3.485-1.411zm6.055 2.438v-2.167h8.259v2.214l-5.167 5.784h5.345v2.186h-8.792v-2.074l5.222-5.943h-4.867zm14.164-.243c-.617 0-1.096.194-1.439.58-.336.386-.548.91-.635 1.57h4.139c-.044-.704-.259-1.237-.645-1.598-.38-.368-.853-.552-1.42-.552zm0-2.195c.847 0 1.61.159 2.289.476.679.318 1.24.82 1.682 1.505.399.604.657 1.305.775 2.102.069.467.097 1.14.084 2.018h-6.97c.038 1.021.359 1.738.963 2.149.367.255.81.383 1.326.383.549 0 .994-.156 1.337-.467a2.23 2.23 0 00.495-.7h2.719c-.069.603-.383 1.217-.944 1.84-.872.99-2.093 1.485-3.663 1.485a5.167 5.167 0 01-3.429-1.252c-.99-.834-1.485-2.192-1.485-4.073 0-1.763.445-3.115 1.336-4.055.897-.94 2.059-1.411 3.485-1.411zm12.277.027c1.053 0 1.912.278 2.579.832.672.549 1.009 1.461 1.009 2.738v6.858h-2.728v-6.195c0-.535-.072-.947-.215-1.233-.262-.523-.76-.785-1.495-.785-.903 0-1.523.383-1.86 1.15-.174.404-.261.921-.261 1.55v5.513h-2.654V38.132h2.57v1.486c.342-.523.666-.9.971-1.13.549-.412 1.243-.617 2.084-.617zm5.008 2.234v-1.897h1.42v-2.84h2.635v2.84h1.654v1.897h-1.654v5.382c0 .417.053.678.159.784.106.1.43.15.971.15h.253l.271-.019v1.99l-1.262.047c-1.258.044-2.117-.174-2.578-.654-.299-.305-.449-.776-.449-1.41v-6.27h-1.42zm16.762-5.578h4.139v13.772h-2.682v-9.315c0-.268.003-.642.01-1.121.006-.486.009-.86.009-1.122l-2.607 11.558h-2.793l-2.588-11.558c0 .262.003.636.009 1.121.006.48.009.854.009 1.122v9.315h-2.681V34.526h4.185l2.504 10.829 2.486-10.829zm10.614 5.512c-.617 0-1.097.194-1.439.58-.337.386-.548.91-.635 1.57h4.139c-.044-.704-.259-1.237-.645-1.598-.38-.368-.853-.552-1.42-.552zm0-2.195c.847 0 1.61.159 2.289.476.679.318 1.239.82 1.682 1.505.398.604.657 1.305.775 2.102.069.467.097 1.14.084 2.018h-6.97c.037 1.021.358 1.738.962 2.149.368.255.81.383 1.327.383.548 0 .994-.156 1.336-.467.187-.168.352-.402.495-.7h2.719c-.068.603-.383 1.217-.943 1.84-.872.99-2.093 1.485-3.663 1.485a5.167 5.167 0 01-3.429-1.252c-.99-.834-1.485-2.192-1.485-4.073 0-1.763.445-3.115 1.336-4.055.897-.94 2.058-1.411 3.485-1.411zM29.82 29.675c5.453 0 9.89-4.433 9.89-9.886v-6.666c0-3.112 2.431-5.647 5.422-5.647h.862a5.89 5.89 0 01-.48-4.465h-.383c-5.428 0-9.85 4.501-9.886 10.043 0 .012-.004.024-.004.032v6.695a5.432 5.432 0 01-5.424 5.424h-2.37a7.021 7.021 0 01-.052 4.465h2.425v.005z" fill="#fff"/>
  <path d="M57.504 3.01h-.608a5.898 5.898 0 01-.476 4.466h1.084c3.116 0 5.647 2.434 5.647 5.425v7.025c0 3.111-2.43 5.646-5.425 5.646h-.375l-2.934 2.938v-2.938h-7.533c-5.453 0-9.886 4.534-9.886 10.112v12.293c0 2.99-2.43 5.424-5.42 5.424h-17.34v3.486l-3.232-3.486h-1.12a5.428 5.428 0 01-5.421-5.425v-12.88a5.431 5.431 0 015.42-5.425h4.131a7.018 7.018 0 01-.052-4.466H9.886C4.433 25.205 0 29.64 0 35.092v12.88c0 5.453 4.437 9.887 9.886 9.887h21.695c5.453 0 9.887-4.434 9.887-9.887V35.68c0-3.115 2.434-5.646 5.42-5.646H57.73c5.453 0 9.886-4.538 9.886-10.112v-7.025c0-5.45-4.538-9.886-10.112-9.886z" fill="#fff"/>
  <path fill-rule="evenodd" clip-rule="evenodd" d="M22.489 34.503h-3.394c-6.948 0-12.578 5.284-12.578 11.797v.963a4.112 4.112 0 004.115 4.111h.342l1.943 2.092v-2.092H30.96a4.112 4.112 0 004.111-4.11V46.3c-.004-6.517-5.634-11.797-12.582-11.797z" fill="#1B57ED"/>
  <path fill-rule="evenodd" clip-rule="evenodd" d="M55.856 4.655a4.65 4.65 0 10-9.302 0 4.656 4.656 0 004.65 4.655 4.654 4.654 0 004.652-4.655zm-4.361 5.965h-.58c-5.368 0-9.721 4.082-9.721 9.116v.746a3.178 3.178 0 003.18 3.176h11.164v1.995l1.995-1.995h.503a3.18 3.18 0 003.18-3.176v-.746c-.004-5.034-4.352-9.116-9.72-9.116z" fill="#fff"/>
</svg>
