<svg xmlns="http://www.w3.org/2000/svg" fill="none" viewBox="0 0 236 82">
  <path fill-rule="evenodd" clip-rule="evenodd" d="M37.235 38.446a8.157 8.157 0 10-16.314 0 8.16 8.16 0 008.157 8.157 8.16 8.16 0 008.157-8.157z" fill="#1B57ED"/>
  <path d="M75.238 51.57v5.197h4.58c.91 0 1.592-.106 2.047-.316.805-.367 1.207-1.093 1.207-2.178 0-1.172-.39-1.96-1.168-2.362-.437-.227-1.093-.341-1.968-.341h-4.698zm5.537-3.36c1.356.027 2.397.193 3.124.5a4.88 4.88 0 011.863 1.35c.42.49.752 1.033.997 1.628s.368 1.273.368 2.034c0 .919-.232 1.824-.696 2.716-.463.884-1.229 1.51-2.296 1.877.892.359 1.522.87 1.89 1.535.376.656.564 1.663.564 3.018v1.3c0 .883.035 1.482.105 1.797.105.499.35.867.735 1.103v.485H82.98c-.122-.428-.21-.774-.262-1.037a9.528 9.528 0 01-.171-1.666l-.026-1.798c-.018-1.233-.245-2.056-.683-2.467-.428-.411-1.237-.617-2.427-.617h-4.173v7.585h-3.95V48.211h9.487zm15.183 7.743c-.866 0-1.54.271-2.02.813-.473.543-.77 1.278-.893 2.205h5.813c-.06-.988-.363-1.736-.905-2.244-.534-.516-1.199-.774-1.995-.774zm0-3.084c1.19 0 2.262.223 3.215.67.954.445 1.741 1.15 2.362 2.112.56.849.923 1.833 1.09 2.953.096.656.135 1.6.118 2.834h-9.79c.053 1.435.503 2.44 1.352 3.018.516.359 1.137.538 1.863.538.77 0 1.396-.218 1.877-.656.262-.236.494-.564.695-.984h3.819c-.096.849-.538 1.71-1.325 2.585-1.225 1.391-2.94 2.087-5.144 2.087-1.82 0-3.425-.587-4.817-1.759-1.39-1.172-2.086-3.08-2.086-5.721 0-2.476.626-4.374 1.877-5.695 1.26-1.321 2.89-1.982 4.894-1.982zm19.172 7.532c0-1.102-.253-2.077-.761-2.926-.498-.849-1.312-1.273-2.441-1.273-1.356 0-2.287.643-2.795 1.93-.262.682-.393 1.548-.393 2.598 0 1.662.441 2.83 1.325 3.503.525.394 1.146.59 1.863.59 1.041 0 1.833-.402 2.376-1.207.551-.804.826-1.876.826-3.215zm-2.126-7.466c1.671 0 3.084.616 4.239 1.85 1.164 1.234 1.745 3.044 1.745 5.433 0 2.52-.568 4.44-1.706 5.76-1.128 1.322-2.585 1.982-4.369 1.982-1.138 0-2.083-.284-2.835-.853-.411-.315-.813-.774-1.207-1.378v7.454h-3.701V53.25h3.583v2.112c.402-.62.831-1.11 1.286-1.47.831-.638 1.819-.957 2.965-.957zm16.469-.027c.07 0 .127.005.171.014.052 0 .162.004.328.013v3.831a10.039 10.039 0 00-1.076-.065c-1.505 0-2.515.49-3.031 1.47-.289.55-.434 1.4-.434 2.545v6.837h-3.766V53.25h3.57v2.493c.577-.954 1.08-1.605 1.509-1.955.7-.586 1.609-.88 2.729-.88zm8.346 3.045c-.866 0-1.54.271-2.021.813-.472.543-.77 1.278-.892 2.205h5.813c-.061-.988-.363-1.736-.905-2.244-.534-.516-1.199-.774-1.995-.774zm0-3.084c1.19 0 2.262.223 3.215.67.954.445 1.741 1.15 2.362 2.112.56.849.923 1.833 1.089 2.953.097.656.136 1.6.119 2.834h-9.79c.053 1.435.503 2.44 1.352 3.018.516.359 1.137.538 1.863.538.77 0 1.395-.218 1.877-.656.262-.236.494-.564.695-.984h3.819c-.096.849-.538 1.71-1.326 2.585-1.224 1.391-2.939 2.087-5.144 2.087-1.819 0-3.425-.587-4.816-1.759s-2.086-3.08-2.086-5.721c0-2.476.625-4.374 1.876-5.695 1.26-1.321 2.892-1.982 4.895-1.982zm8.504 3.425V53.25h11.6v3.11l-7.257 8.123h7.506v3.07h-12.348V64.64l7.335-8.346h-6.836zm19.893-.341c-.866 0-1.539.271-2.021.813-.472.543-.769 1.278-.892 2.205h5.813c-.061-.988-.363-1.736-.905-2.244-.534-.516-1.199-.774-1.995-.774zm0-3.084c1.19 0 2.262.223 3.215.67.954.445 1.741 1.15 2.362 2.112.56.849.923 1.833 1.09 2.953.096.656.135 1.6.118 2.834h-9.79c.053 1.435.503 2.44 1.352 3.018.516.359 1.137.538 1.863.538.77 0 1.396-.218 1.877-.656.262-.236.494-.564.695-.984h3.819c-.096.849-.538 1.71-1.325 2.585-1.225 1.391-2.94 2.087-5.144 2.087-1.82 0-3.425-.587-4.816-1.759s-2.087-3.08-2.087-5.721c0-2.476.626-4.374 1.877-5.695 1.259-1.321 2.891-1.982 4.894-1.982zm17.243.039c1.479 0 2.686.39 3.622 1.168.945.77 1.417 2.052 1.417 3.845v9.632h-3.831v-8.7c0-.752-.101-1.33-.302-1.732-.368-.735-1.068-1.102-2.1-1.102-1.268 0-2.139.538-2.611 1.614-.245.568-.368 1.294-.368 2.178v7.742h-3.726V53.276h3.608v2.086c.481-.735.936-1.264 1.365-1.587.77-.578 1.745-.867 2.926-.867zm7.034 3.137V53.38h1.995v-3.99h3.7v3.99h2.323v2.664h-2.323v7.558c0 .586.075.954.223 1.103.149.14.604.21 1.365.21h.354l.381-.027v2.795l-1.772.066c-1.767.061-2.974-.245-3.621-.918-.42-.43-.63-1.09-.63-1.982v-8.805h-1.995zm23.542-7.835h5.813v19.343h-3.766V54.47c0-.376.004-.901.013-1.575.009-.682.013-1.207.013-1.574l-3.661 16.232h-3.924l-3.635-16.232c0 .367.005.892.014 1.574.008.674.013 1.199.013 1.575v13.083h-3.767V48.211h5.879l3.517 15.209 3.491-15.21zm14.907 7.743c-.866 0-1.54.271-2.021.813-.472.543-.77 1.278-.892 2.205h5.813c-.061-.988-.363-1.736-.905-2.244-.534-.516-1.199-.774-1.995-.774zm0-3.084c1.19 0 2.261.223 3.215.67.954.445 1.741 1.15 2.362 2.112.56.849.923 1.833 1.089 2.953.096.656.136 1.6.118 2.834h-9.789c.052 1.435.503 2.44 1.352 3.018.516.359 1.137.538 1.863.538.77 0 1.395-.218 1.876-.656.263-.236.495-.564.696-.984h3.819c-.097.849-.538 1.71-1.326 2.585-1.224 1.391-2.939 2.087-5.144 2.087-1.819 0-3.425-.587-4.816-1.759s-2.086-3.08-2.086-5.721c0-2.476.625-4.374 1.876-5.695 1.26-1.321 2.892-1.982 4.895-1.982zM41.883 41.678c7.658 0 13.89-6.226 13.89-13.885v-9.362c0-4.37 3.414-7.93 7.614-7.93h1.211a8.271 8.271 0 01-1.007-3.963c0-.804.118-1.574.334-2.31h-.538c-7.625 0-13.834 6.323-13.885 14.106 0 .017-.006.034-.006.046v9.402c0 4.2-3.419 7.619-7.619 7.619h-3.328a9.857 9.857 0 01-.074 6.272h3.408v.005z" fill="#012160"/>
  <path d="M80.764 4.228h-.855c.21.736.334 1.506.334 2.31a8.284 8.284 0 01-1.001 3.962h1.522c4.376 0 7.93 3.42 7.93 7.62v9.865c0 4.37-3.413 7.93-7.618 7.93h-.527l-4.12 4.127v-4.126h-10.58c-7.659 0-13.886 6.368-13.886 14.202v17.265c0 4.2-3.413 7.619-7.613 7.619H20v4.896l-4.54-4.896h-1.574c-4.2 0-7.613-3.42-7.613-7.62v-18.09c0-4.2 3.419-7.62 7.613-7.62h5.802a9.86 9.86 0 01-.073-6.271h-5.729C6.227 35.4 0 41.627 0 49.286v18.091c0 7.659 6.232 13.885 13.885 13.885h30.47c7.66 0 13.886-6.226 13.886-13.885V50.112c0-4.375 3.419-7.93 7.613-7.93h15.227c7.659 0 13.885-6.374 13.885-14.202v-9.866c0-7.653-6.373-13.886-14.202-13.886z" fill="#012160"/>
  <path fill-rule="evenodd" clip-rule="evenodd" d="M31.585 48.46H26.82c-9.759 0-17.666 7.42-17.666 16.568v1.353a5.777 5.777 0 005.78 5.773h.48l2.729 2.938v-2.938h25.342a5.776 5.776 0 005.773-5.773v-1.353c-.005-9.153-7.913-16.568-17.672-16.568z" fill="#1B57ED"/>
  <path fill-rule="evenodd" clip-rule="evenodd" d="M78.45 6.538a6.532 6.532 0 10-13.064 0c-.001 3.606 2.925 6.538 6.53 6.538a6.536 6.536 0 006.533-6.538zm-6.125 8.377h-.816c-7.54 0-13.653 5.735-13.653 12.805v1.047a4.463 4.463 0 004.466 4.46h15.68v2.802l2.802-2.802h.708a4.467 4.467 0 004.466-4.46V27.72c-.006-7.07-6.114-12.805-13.653-12.805z" fill="#012160"/>
</svg>
